<svg id="Capa_1" enable-background="new 0 0 512.003 512.003" height="512" viewBox="0 0 512.003 512.003" width="512" xmlns="http://www.w3.org/2000/svg"><g id="XMLID_1663_"><g id="XMLID_1866_"><g id="XMLID_1464_"><circle id="XMLID_1474_" cx="184.028" cy="184.031" fill="#99ebfa" r="115.941"/><g fill="#98eaf9"><path id="XMLID_1473_" d="m235.63 79.087 24.164-69.084c18.09 0 32.754 14.664 32.754 32.754 18.089 0 32.754 14.664 32.754 32.754 18.09 0 32.754 14.664 32.754 32.754l-69.087 24.165z"/><path id="XMLID_1469_" d="m79.084 235.633-69.084 24.164c0 18.089 14.664 32.754 32.754 32.754 0 18.09 14.664 32.754 32.754 32.754 0 18.089 14.664 32.754 32.754 32.754l24.165-69.087z"/></g></g><g id="XMLID_1193_"><circle id="XMLID_1440_" cx="327.975" cy="327.972" fill="#d9bde9" r="115.941"/><path id="XMLID_2513_" d="m440.564 355.715c-10.449-8.715-23.89-13.963-38.56-13.963-33.275 0-60.249 26.975-60.249 60.249 0 14.67 5.248 28.111 13.963 38.56 19.876-4.877 38.712-15.078 54.24-30.606s25.729-34.365 30.606-54.24z" fill="#fff"/><g fill="#c193dc"><path id="XMLID_1392_" d="m379.577 223.028 24.164-69.084c18.089 0 32.754 14.664 32.754 32.754 18.089 0 32.754 14.664 32.754 32.754 18.089 0 32.754 14.664 32.754 32.754l-69.087 24.165z"/><path id="XMLID_1368_" d="m223.031 379.574-69.084 24.164c0 18.089 14.664 32.754 32.754 32.754 0 18.089 14.664 32.754 32.754 32.754 0 18.09 14.664 32.754 32.754 32.754l24.165-69.087z"/></g></g><g fill="#fff"><circle id="XMLID_2509_" cx="341.755" cy="239.261" r="25.742"/><circle id="XMLID_2507_" cx="250.327" cy="334.913" r="37.733"/></g></g><g id="XMLID_516_"><path id="XMLID_1361_" d="m478.289 210.412c-3.53-16.332-16.422-29.224-32.754-32.754-4.16-19.247-21.319-33.715-41.793-33.715-4.25 0-8.036 2.687-9.439 6.698l-20.913 59.79c-14.294-5.517-29.632-8.401-45.414-8.401-6.602 0-13.125.512-19.527 1.503 3.448-22.066.933-44.436-6.964-64.888l59.874-20.942c4.012-1.403 6.698-5.189 6.698-9.439 0-20.474-14.468-37.633-33.715-41.793-3.53-16.332-16.422-29.224-32.754-32.754-4.16-19.247-21.319-33.715-41.793-33.715-4.25 0-8.036 2.687-9.439 6.698l-20.916 59.797c-29.648-11.495-63.158-11.528-93.861 1.252-5.099 2.123-7.512 7.977-5.389 13.075 2.122 5.099 7.978 7.51 13.075 5.39 39.793-16.563 85.198-7.572 115.675 22.906 26.135 26.135 36.667 63.938 28.093 99.693-17.912 6.138-34.33 16.324-48.112 30.106-13.783 13.783-23.969 30.201-30.107 48.115-8.203 1.969-16.506 2.948-24.758 2.948-27.718-.002-54.78-10.878-74.94-31.039-30.478-30.477-39.469-75.883-22.906-115.675 2.123-5.099-.29-10.952-5.389-13.075-5.096-2.118-10.952.29-13.075 5.39-12.78 30.703-12.747 64.213-1.252 93.861l-59.796 20.914c-4.011 1.403-6.698 5.189-6.698 9.439 0 20.474 14.468 37.633 33.715 41.793 3.53 16.332 16.421 29.224 32.754 32.754 4.16 19.247 21.319 33.715 41.793 33.715 4.25 0 8.036-2.686 9.439-6.698l20.934-59.852c14.442 5.58 29.842 8.473 45.419 8.473 6.482 0 12.994-.52 19.482-1.535-.991 6.402-1.503 12.924-1.503 19.525 0 15.782 2.884 31.12 8.401 45.414l-59.79 20.913c-4.012 1.403-6.698 5.189-6.698 9.439 0 20.474 14.468 37.633 33.715 41.793 3.53 16.332 16.421 29.224 32.754 32.754 4.16 19.247 21.319 33.715 41.792 33.715 4.25 0 8.036-2.686 9.44-6.698l20.913-59.79c14.294 5.517 29.632 8.401 45.414 8.401 33.64 0 65.267-13.101 89.054-36.888s36.888-55.413 36.888-89.054c0-15.782-2.884-31.121-8.401-45.414l59.789-20.913c4.012-1.403 6.698-5.189 6.698-9.439.001-20.473-14.466-37.632-33.713-41.793zm-230.723-135.16 18.969-54.231c9.266 2.88 16.014 11.534 16.014 21.735 0 5.522 4.478 10 10 10 12.547 0 22.754 10.207 22.754 22.754 0 5.522 4.477 10 10 10 10.201 0 18.855 6.748 21.735 16.014l-54.28 18.986c-5.372-9.2-11.942-17.799-19.675-25.533-7.769-7.768-16.357-14.353-25.517-19.725zm-146.044 271.788c-9.267-2.88-16.014-11.534-16.014-21.735 0-5.522-4.477-10-10-10-12.546 0-22.754-10.207-22.754-22.754 0-5.522-4.477-10-10-10-10.201 0-18.855-6.748-21.735-16.014l54.23-18.969c5.372 9.159 11.956 17.748 19.724 25.516 7.737 7.737 16.332 14.317 25.528 19.69zm255.975-107.779c0 8.68-7.062 15.741-15.742 15.741s-15.741-7.061-15.741-15.741 7.061-15.741 15.741-15.741 15.742 7.061 15.742 15.741zm-134.903 95.651c0-15.292 12.441-27.733 27.733-27.733s27.733 12.441 27.733 27.733-12.441 27.733-27.733 27.733c-15.292.001-27.733-12.441-27.733-27.733zm22.875 156.07c-9.267-2.88-16.014-11.534-16.014-21.735 0-5.522-4.477-10-10-10-12.546 0-22.754-10.207-22.754-22.754 0-5.522-4.477-10-10-10-10.201 0-18.855-6.748-21.735-16.014l54.222-18.965c5.394 9.199 11.994 17.772 19.733 25.512 7.74 7.74 16.314 14.34 25.513 19.734zm7.594-88.099c-6.797-6.796-12.553-14.356-17.196-22.482 4.564 1.454 9.421 2.245 14.46 2.245 26.32 0 47.733-21.413 47.733-47.733s-21.413-47.733-47.733-47.733c-8.057 0-15.65 2.015-22.314 5.554 5.19-14.757 13.662-28.284 25.051-39.672 15.616-15.617 35.249-25.757 56.57-29.457-2.316 4.731-3.62 10.044-3.62 15.657 0 19.708 16.033 35.741 35.741 35.741s35.742-16.033 35.742-35.741c0-1.765-.134-3.498-.382-5.195 9.381 4.923 18.067 11.29 25.771 18.995 20.01 20.009 31.03 46.613 31.03 74.911 0 3.758-.2 7.484-.584 11.171-9.67-4.814-20.398-7.392-31.329-7.392-38.735 0-70.249 31.514-70.249 70.249 0 10.923 2.577 21.657 7.39 31.329-3.686.384-7.412.584-11.169.584-28.298-.001-54.902-11.021-74.912-31.031zm149.823 0c-12.287 12.288-27.064 21.179-43.191 26.217-5.148-8.044-7.941-17.469-7.941-27.1 0-27.707 22.542-50.249 50.249-50.249 9.637 0 19.056 2.79 27.1 7.939-5.037 16.127-13.928 30.905-26.217 43.193zm33.877-138.453c-5.394-9.199-11.994-17.773-19.734-25.512-7.74-7.74-16.314-14.34-25.513-19.734l18.966-54.222c9.266 2.88 16.014 11.534 16.014 21.735 0 5.522 4.478 10 10 10 12.547 0 22.754 10.207 22.754 22.754 0 5.523 4.478 10 10 10 10.2 0 18.854 6.748 21.734 16.014z"/><path id="XMLID_1411_" d="m102.041 112.051c2.63 0 5.21-1.07 7.08-2.93 1.86-1.86 2.92-4.44 2.92-7.07 0-2.64-1.06-5.21-2.92-7.07-1.87-1.87-4.45-2.93-7.08-2.93s-5.21 1.06-7.07 2.93c-1.86 1.86-2.93 4.431-2.93 7.07 0 2.63 1.07 5.2 2.93 7.07 1.86 1.86 4.44 2.93 7.07 2.93z"/></g></g></svg>